<?xml version="1.0" encoding="UTF-8" standalone="no"?>
<svg xmlns:ffdec="https://www.free-decompiler.com/flash" xmlns:xlink="http://www.w3.org/1999/xlink" ffdec:objectType="shape" height="91.15px" width="82.2px" xmlns="http://www.w3.org/2000/svg">
  <g transform="matrix(1.0, 0.0, 0.0, 1.0, 39.95, 48.2)">
    <path d="M36.3 15.65 Q35.4 18.55 33.85 21.65 L33.05 23.15 Q33.05 25.1 31.8 27.05 30.6 28.9 28.05 30.65 25.3 32.5 20.5 34.4 L20.65 34.2 Q24.8 32.25 27.55 29.35 29.9 26.8 30.95 23.65 L31.15 23.05 32.2 21.55 Q34.75 18.75 36.3 15.65 M-23.25 32.4 Q-25.5 31.1 -27.45 28.6 L-28.05 27.85 -27.5 28.4 -23.25 32.4" fill="#9a938d" fill-rule="evenodd" stroke="none"/>
    <path d="M-11.65 -11.65 Q-13.5 -10.05 -14.95 -9.55 L-16.85 -9.35 Q-17.95 -9.5 -18.65 -10.1 -19.9 -11.15 -19.9 -13.1 -19.85 -14.5 -19.05 -16.35 -16.7 -21.65 -11.85 -25.25 -10.4 -26.2 -9.45 -26.55 L-6.8 -26.8 Q-5.4 -26.55 -4.55 -25.55 -3.3 -24.05 -3.85 -21.75 -4.2 -20.25 -5.7 -18.2 -8.15 -14.75 -11.65 -11.65 M-19.4 6.1 Q-19.75 6.75 -20.5 7.05 -21.25 7.3 -21.95 7.05 -23.0 6.65 -23.25 5.45 -23.4 4.25 -22.55 3.55 -21.6 2.8 -20.55 3.2 -19.85 3.4 -19.45 4.15 -18.85 5.15 -19.4 6.1" fill="#ffffff" fill-rule="evenodd" stroke="none"/>
    <path d="M-32.95 -3.05 Q-32.1 -6.2 -30.7 -9.25 -28.65 -13.65 -24.75 -18.95 -19.75 -25.55 -14.1 -30.8 -8.7 -35.8 -4.1 -37.4 L-1.95 -37.75 -1.9 -37.75 -1.55 -38.45 Q-0.3 -40.6 1.05 -41.4 L3.0 -41.85 Q4.1 -41.85 4.85 -41.25 5.65 -40.65 5.7 -39.55 5.8 -38.4 5.05 -37.8 L3.75 -36.9 3.35 -36.25 3.85 -34.6 Q4.2 -32.9 4.85 -30.95 L8.35 -25.0 10.8 -21.15 13.4 -20.0 Q15.85 -18.95 17.3 -17.85 L18.75 -16.65 Q23.6 -14.35 27.05 -11.25 L27.2 -11.25 Q28.6 -11.05 29.7 -9.6 30.45 -8.5 30.9 -6.7 L31.2 -5.05 Q31.85 -3.25 31.9 -0.75 31.85 4.15 30.1 9.1 28.35 14.05 26.1 16.95 23.85 19.85 20.2 22.65 16.55 25.4 9.1 27.1 1.65 28.75 -7.85 27.3 -12.4 26.55 -15.7 25.0 -18.75 23.5 -21.6 21.05 -25.75 17.55 -28.35 13.3 -31.2 8.6 -31.75 3.75 -32.1 0.8 -31.3 -1.3 -30.7 -2.8 -31.25 -3.3 -31.85 -3.85 -32.95 -3.05 M-19.4 6.1 Q-18.85 5.15 -19.45 4.15 -19.85 3.4 -20.55 3.2 -21.6 2.8 -22.55 3.55 -23.4 4.25 -23.25 5.45 -23.0 6.65 -21.95 7.05 -21.25 7.3 -20.5 7.05 -19.75 6.75 -19.4 6.1 M-11.65 -11.65 Q-8.15 -14.75 -5.7 -18.2 -4.2 -20.25 -3.85 -21.75 -3.3 -24.05 -4.55 -25.55 -5.4 -26.55 -6.8 -26.8 L-9.45 -26.55 Q-10.4 -26.2 -11.85 -25.25 -16.7 -21.65 -19.05 -16.35 -19.85 -14.5 -19.9 -13.1 -19.9 -11.15 -18.65 -10.1 -17.95 -9.5 -16.85 -9.35 L-14.95 -9.55 Q-13.5 -10.05 -11.65 -11.65" fill="#7a665a" fill-rule="evenodd" stroke="none"/>
    <path d="M27.05 -11.25 L27.15 -11.45 Q27.7 -12.5 29.1 -12.3 30.05 -12.15 31.15 -11.35 33.2 -9.7 34.65 -6.8 L35.15 -6.3 Q38.1 -3.3 38.45 2.8 38.85 8.65 37.25 13.35 L36.3 15.65 Q34.75 18.75 32.2 21.55 L31.15 23.05 30.95 23.65 Q29.9 26.8 27.55 29.35 24.8 32.25 20.65 34.2 L20.5 34.4 Q19.05 35.65 17.15 36.7 14.7 38.0 10.95 39.2 -0.5 42.85 -8.9 40.75 -13.85 39.5 -18.95 35.85 L-23.25 32.4 -27.5 28.4 -28.05 27.85 Q-33.5 22.2 -35.75 18.25 -36.9 16.15 -37.0 14.7 -37.1 13.7 -36.7 12.85 -36.3 11.9 -35.5 11.45 -35.1 11.2 -34.65 11.1 -35.85 7.35 -35.65 3.65 -35.45 -0.9 -33.05 -3.0 L-32.95 -3.05 Q-31.85 -3.85 -31.25 -3.3 -30.7 -2.8 -31.3 -1.3 -32.1 0.8 -31.75 3.75 -31.2 8.6 -28.35 13.3 -25.75 17.55 -21.6 21.05 -18.75 23.5 -15.7 25.0 -12.4 26.55 -7.85 27.3 1.65 28.75 9.1 27.1 16.55 25.4 20.2 22.65 23.85 19.85 26.1 16.95 28.35 14.05 30.1 9.1 31.85 4.15 31.9 -0.75 31.85 -3.25 31.2 -5.05 L30.9 -6.7 Q30.45 -8.5 29.7 -9.6 28.6 -11.05 27.2 -11.25 L27.05 -11.25" fill="#5a4b41" fill-rule="evenodd" stroke="none"/>
    <path d="M-7.0 -32.7 Q-16.8 -25.35 -23.6 -15.5 -30.65 -5.45 -32.45 4.35 -34.0 11.35 -32.3 16.95 -30.55 23.4 -24.35 28.15 -19.65 31.7 -12.0 34.05 -6.6 35.7 -2.2 36.05 2.15 36.4 5.7 35.9 L11.35 34.65 17.95 31.95 Q22.35 29.95 26.65 25.85 30.95 21.7 33.4 17.15 35.85 12.55 35.6 6.7 35.35 0.8 31.85 -3.35 28.35 -7.5 24.05 -10.25 L16.3 -15.15 Q11.75 -18.1 9.05 -20.7 5.45 -24.2 3.65 -28.3 1.55 -33.0 2.2 -37.5 L2.4 -38.8 Q-2.5 -36.15 -7.0 -32.7 M3.95 42.8 L1.5 42.95 Q-6.85 43.2 -15.85 40.45 -23.25 38.0 -28.55 34.05 -34.8 29.3 -37.5 23.05 -39.5 18.5 -39.85 13.2 L-39.95 11.3 -39.9 10.45 -39.85 9.35 Q-39.8 6.0 -39.0 2.75 -37.0 -6.8 -30.55 -16.7 -24.3 -26.6 -15.2 -34.3 -6.25 -42.1 4.15 -46.6 5.85 -47.45 7.3 -47.95 L8.25 -48.2 Q9.1 -48.3 9.95 -47.7 11.2 -46.85 9.7 -42.75 8.25 -38.7 8.45 -35.3 8.55 -31.95 11.0 -28.8 14.3 -24.35 23.15 -19.0 32.45 -13.35 35.75 -9.55 38.85 -5.95 40.55 -1.1 42.15 3.5 42.25 8.65 42.2 13.9 40.55 18.2 38.9 22.45 35.05 27.15 30.6 32.35 25.6 35.75 19.85 39.4 13.25 41.25 L3.95 42.8 M15.1 -10.5 Q16.2 -11.2 17.45 -11.4 L20.85 -11.0 Q22.95 -10.45 24.75 -8.3 L26.1 -6.1 Q26.65 -4.9 26.55 -3.8 26.65 -1.25 24.85 0.7 23.05 2.6 20.55 2.6 18.3 2.55 16.1 0.8 13.95 -0.9 13.3 -3.45 12.6 -6.0 13.35 -7.9 14.05 -9.8 15.1 -10.5 M2.2 7.0 Q2.75 6.95 3.45 6.5 4.85 5.7 5.35 4.5 L5.7 3.4 Q6.0 2.75 6.4 2.55 L7.7 2.75 Q9.0 3.5 9.15 5.15 9.25 6.65 8.35 7.9 7.65 8.95 6.25 9.9 4.6 11.0 2.95 11.2 L-0.25 10.85 Q-1.8 10.3 -3.0 9.15 L-4.2 7.55 Q-4.6 6.4 -4.4 5.35 -4.2 4.4 -3.6 3.9 -2.95 3.25 -2.0 3.65 L-1.2 4.55 -0.65 5.75 Q-0.25 6.45 0.55 6.8 L2.2 7.0 M-23.3 1.25 Q-21.3 0.2 -18.85 0.85 -16.55 1.5 -14.85 3.85 -13.3 6.15 -13.5 8.8 -13.7 11.4 -15.65 13.3 -17.45 15.05 -19.85 15.2 -22.25 15.35 -24.4 13.65 -26.45 12.1 -27.15 9.55 -27.7 6.95 -26.65 4.55 -25.5 2.15 -23.3 1.25" fill="#000000" fill-rule="evenodd" stroke="none"/>
  </g>
</svg>
